<?xml version="1.0" encoding="utf-8"?>
<!-- Generator: Adobe Illustrator 27.6.1, SVG Export Plug-In . SVG Version: 6.00 Build 0)  -->
<svg version="1.1" id="Layer_1" xmlns="http://www.w3.org/2000/svg" xmlns:xlink="http://www.w3.org/1999/xlink" x="0px" y="0px"
	 viewBox="0 0 64 64" style="enable-background:new 0 0 64 64;" xml:space="preserve">
<style type="text/css">
	.st0{fill:#007CBF;}
</style>
<path class="st0" d="M54.7,58.6H9.3c-2.1,0-3.7-1.7-3.7-3.8V26.1c0-0.2,0.1-0.4,0.3-0.6l7.4-6.9V6.2c0-0.4,0.4-0.8,0.8-0.8h36.3
	c0.4,0,0.8,0.4,0.8,0.8v12.7l7.1,6.7c0.2,0.1,0.3,0.4,0.3,0.6v28.8C58.5,57,56.8,58.6,54.7,58.6z M7.2,26.5v28.4
	c0,1.2,1,2.1,2.1,2.1h45.4c1.2,0,2.1-1,2.1-2.1V26.5l-7.1-6.7c-0.2-0.1-0.3-0.4-0.3-0.6V7H14.8v12c0,0.2-0.1,0.4-0.3,0.6L7.2,26.5z"
	/>
<path class="st0" d="M14,32.3c-0.4,0-0.8-0.4-0.8-0.8V19c0-0.4,0.4-0.8,0.8-0.8c0.4,0,0.8,0.4,0.8,0.8v12.5
	C14.8,31.9,14.4,32.3,14,32.3z"/>
<path class="st0" d="M50.3,32.7c-0.4,0-0.8-0.4-0.8-0.8V19.2c0-0.4,0.4-0.8,0.8-0.8c0.4,0,0.8,0.4,0.8,0.8v12.6
	C51.1,32.3,50.7,32.7,50.3,32.7z"/>
<path class="st0" d="M32.1,45.1c-1.2,0-2.4-0.4-3.4-1.2L10.6,29.8c-0.3-0.3-0.4-0.8-0.1-1.1c0.3-0.3,0.8-0.4,1.1-0.1l18.1,14.1
	c1.4,1.1,3.3,1.1,4.7,0L52.7,29c0.4-0.3,0.9-0.2,1.1,0.2c0.3,0.4,0.2,0.9-0.2,1.1L35.3,44C34.4,44.7,33.2,45.1,32.1,45.1z"/>
<path class="st0" d="M7.2,57.8c-0.2,0-0.4-0.1-0.6-0.3c-0.3-0.3-0.3-0.8,0-1.1l18.2-16.6c0.3-0.3,0.8-0.3,1.1,0
	c0.3,0.3,0.3,0.8,0,1.1L7.8,57.6C7.6,57.7,7.4,57.8,7.2,57.8z"/>
<path class="st0" d="M57,57.6c-0.2,0-0.4-0.1-0.5-0.2l-18-16.5c-0.3-0.3-0.3-0.8,0-1.1s0.8-0.3,1.1,0l18,16.4c0.3,0.3,0.3,0.8,0,1.1
	C57.4,57.5,57.2,57.6,57,57.6z"/>
<path class="st0" d="M26,11c-1.9,2-1.9,5.2,0,7.2l4.1,4.2l1.4-1.4l-4.1-4.2c-1.2-1.2-1.2-3.1,0-4.3c1.2-1.2,3-1.2,4.2,0l8.4,8.6
	c1.2,1.2,1.2,3.1,0,4.3c-1.2,1.2-3,1.2-4.2,0l-1.3-1.3l-1.4,1.4l1.3,1.3c1.9,2,5.1,2,7,0c1.9-2,1.9-5.2,0-7.2L33,11
	C31,9,27.9,9,26,11z"/>
<path class="st0" d="M30.9,23.3l-4.9,5c-1.9,2-1.9,5.2,0,7.2c1.9,2,5.1,2,7,0l5.6-5.8c-0.9,0.1-1.7,0-2.6-0.2l-4.4,4.6
	c-1.2,1.2-3,1.2-4.2,0c-1.2-1.2-1.2-3.1,0-4.3l8.4-8.6c0.4-0.4,0.9-0.7,1.4-0.8l-1.5-1.6c-0.5,0.2-0.9,0.6-1.3,1l-2.1,2.2l0,0
	L30.9,23.3L30.9,23.3z"/>
</svg>
